<svg version="1" xmlns="http://www.w3.org/2000/svg" width="1365.333" height="1365.333" viewBox="0 0 1024.000000 1024.000000"><path d="M220.8 4.5c-.2.2-3.1.5-6.4.9-39.8 4.1-75.4 33.2-88.3 72.1-2.8 8.5-3.3 11-5 23-1.2 9-.5 21.6 1.9 33 .5 2.7 1.3 6.5 1.6 8.3.4 1.8 1.1 3.5 1.5 3.8.5.3.9 1.2.9 2 0 .9 2 5.5 4.4 10.4 10.9 22 27 38.1 49 49 9.3 4.6 26.6 10 32 10h2.2l.3 46.2c.1 25.5.4 77.2.6 115 .4 54.3.2 68.8-.8 68.9-.6 0-1.9.2-2.7.4-.8.2-3.3.6-5.5 1-5.7.9-20.5 6-26.7 9.1-19.9 10-38.3 28.3-48.1 47.9-8.9 17.9-12.8 41-10.4 61.3 4.4 35.9 28.5 68.3 62.3 83.8 12.9 5.9 24.8 8.5 40.4 9 16 .4 25.8-1.1 39.7-6.1 35.3-12.6 62.5-44.7 68.5-80.7l1.1-6.8 13.1-.1c7.2 0 34.5-.2 60.6-.4 94.9-.7 155-.8 155.4-.4.2.2.6 5.6.9 11.9.4 6.3.9 13.1 1.2 15 .3 1.9 1 6.6 1.6 10.5.6 3.8 1.3 7.9 1.6 9 .2 1.1.6 3.1.9 4.5.3 1.4 1 4.3 1.5 6.5s1.2 5.1 1.5 6.5c1.9 9.3 10.4 35.3 16.9 52 12.5 32.1 34.5 76.2 52.7 105.7 2.1 3.4 3.8 6.5 3.8 6.7 0 .8 20.6 33.1 26.6 41.9 3 4.2 5.4 7.9 5.4 8.2 0 .2 2.1 3.3 4.8 6.9 2.6 3.6 7.4 10.4 10.7 15.1 3.3 4.8 6.5 9.2 7 9.8.6.7 3.5 4.6 6.5 8.7 7.1 9.7 18.8 24.7 22.1 28.3l2.5 2.8 4.9-6.3c2.7-3.5 5.2-6.5 5.5-6.8 2.2-1.9 33.3-42.9 45.1-59.5 7.6-10.6 27.7-40.1 30.4-44.7.6-.9 6-9.9 12.1-20 17-28.1 27.2-47.3 41.4-78.3 13.8-30.2 27.6-75.4 30.6-100.1.3-2.3.7-5.3.9-6.5.9-4.4 1.9-21.4 1.8-31.4-.2-38.8-9.1-70.3-28.1-99.5-9.7-14.9-24.9-31.7-36.7-40.5-2.2-1.6-4.2-3.3-4.5-3.6-1.5-1.9-19.7-12.8-27.5-16.5-16.1-7.7-38.3-14-55.5-15.9-6.2-.6-31.4-.8-34.5-.2-1.1.3-4.2.8-7 1.1-8.5 1.2-10.8 1.6-17 3.2-28.1 7.3-54.7 21.9-75 41.3-28.3 27-46.2 60.8-52.1 98.7l-1.7 11-61.1.3c-33.6.2-85.4.4-115.1.5l-54 .1-.7-5c-1.9-13.3-8.5-30-16.7-42.5-9.2-14.1-23.6-27.1-39.2-35.3-6.9-3.7-22.1-9.2-27.9-10.2-1.9-.3-4.7-.8-6.2-1.1l-2.8-.6-.1-12.6c0-7-.2-37.2-.4-67.2s-.4-75.9-.6-101.9l-.2-47.5 7.2-1.2c15.1-2.6 31.7-9.6 44.1-18.6 8-5.9 20.8-19.3 26.1-27.3 8.4-12.8 15-29.4 16.4-41.5.4-3 .8-5.7 1-5.9.4-.3 61.8-.2 147.5.4 27.2.2 55.4.4 62.7.4l13.2.1.6 3.7c6.9 41.9 37.6 75.6 79 87 8.9 2.4 11.7 2.7 26 2.8 17.1 0 23.5-1 37.7-6.1 34.9-12.5 61.6-44.6 68.3-82 1.6-9.3 1.4-31.5-.5-38.9-2.8-11.4-5.6-19.4-9.3-26.5-2.1-4.1-4.4-8.5-5-9.7-.7-1.3-1.5-2.3-1.9-2.3-.5 0-.8-.5-.8-1.2 0-1.4-8.7-11.6-15-17.6-23.7-22.6-59.4-33-92.3-26.8-22.1 4.2-40.2 13.9-56.3 30.1-8.9 9-14.3 16.4-19.7 27.1-3.7 7.3-8 19.8-9.4 26.9-.4 2.2-.8 4.3-.9 4.7-.1.5-.2 1.7-.3 2.7-.1 2-1.5 2-99.8 1.5-54.9-.3-105.2-.7-111.7-.7l-12-.2-1.2-6.5c-8.1-43.8-43-78.2-87.4-86-5.7-1-23.5-2.1-24.2-1.5zm21.4 50c18.8 4.9 34.2 19.2 41 38.2 2.6 7.5 3.3 23.4 1.3 31.8-4.9 21.1-20.8 37.4-42.4 43.6-8.6 2.5-25.1 2-33.1-.9-32.2-11.6-48.3-45.4-36.6-76.6C183 62.5 212.9 47 242.2 54.5zm434.3-.4c25.5 5.8 44.2 28.4 45.1 54.4.6 17.7-4.8 31.7-17 44-12.2 12.4-25.5 17.6-43.6 17-12.3-.3-19.6-2.5-29.2-8.7-17.5-11.2-27.1-29.1-27.1-50.3C604.8 94.3 610 82 622 70c14.7-14.7 34.4-20.4 54.5-15.9zm73 412.3c34.7 7.1 61 31.2 71 65.2 3.7 12.2 4.3 30 1.6 43-10.9 52.6-65.1 84.8-116.2 68.9-8.1-2.6-23-9.9-23.7-11.6-.2-.5-1-.9-1.7-.9-2.5 0-19.3-17.5-24.3-25.3-13.6-21-18.1-48.2-11.8-72.4 6.8-26 26.4-49.2 50.9-60.2 6.4-2.9 13.6-5.1 22.7-7 4.7-.9 26.3-.7 31.5.3zM243 496.6c18.9 5.4 33.5 19.6 40.6 39.4 2.4 6.5 2.8 23.9.8 31.4-4.7 18.1-18.3 33.6-35.4 40.4-7 2.8-8.8 3.2-18.2 3.9-29 2.1-55.1-18.2-61.4-47.7-.4-1.9-.7-7.3-.6-12 .2-23.4 14.7-44.5 36.5-53.1 11.8-4.7 26.2-5.6 37.7-2.3zM701.7 957.6c-.1.1-6.5.5-14.2.9-7.7.3-16 .8-18.5 1-8.3.6-17.5 1.5-22 2-2.5.3-6.3.8-8.5 1-2.2.2-5.3.6-7 .9-1.6.2-5.5.8-8.5 1.2-3 .4-5.7.8-6 .9-.3.1-2.5.5-5 .9-8.1 1.5-20.8 4.6-28.7 7.2-22.5 7.3-26.8 17.3-10.8 25.2 6.9 3.4 23.1 8.4 31.5 9.8 1.4.2 4.5.8 7 1.4 12.9 2.6 33.4 5.3 51 6.6 4.1.3 9.1.7 11 .9 21.9 2.3 92.8 2.3 120.5 0 2.8-.2 8.4-.6 12.5-1 4.1-.3 9.1-.7 11-1 4-.5 13-1.6 17.5-2 1.7-.2 4.5-.6 6.3-.9 1.7-.3 4.7-.8 6.5-1.1 16.9-2.7 37.1-8.1 45.3-12.2 14-6.8 14.1-14.7.4-21.7-6.7-3.5-25.4-8.9-37.5-11-8.1-1.4-22.6-3.6-27.5-4.1-3-.3-6.6-.8-8-1-1.4-.2-6.3-.6-11-1s-10.1-.8-12-1c-14.2-1.4-94.1-3-95.3-1.9z"/></svg>